<?xml version="1.0" encoding="UTF-8" standalone="no"?>
<!-- Created with Inkscape (http://www.inkscape.org/) -->

<svg
   version="1.1"
   id="svg1"
   width="466.66666"
   height="466.66666"
   viewBox="0 0 466.66666 466.66666"
   sodipodi:docname="guitar_005.eps"
   xmlns:inkscape="http://www.inkscape.org/namespaces/inkscape"
   xmlns:sodipodi="http://sodipodi.sourceforge.net/DTD/sodipodi-0.dtd"
   xmlns="http://www.w3.org/2000/svg"
   xmlns:svg="http://www.w3.org/2000/svg">
  <defs
     id="defs1" />
  <sodipodi:namedview
     id="namedview1"
     pagecolor="#ffffff"
     bordercolor="#000000"
     borderopacity="0.25"
     inkscape:showpageshadow="2"
     inkscape:pageopacity="0.0"
     inkscape:pagecheckerboard="0"
     inkscape:deskcolor="#d1d1d1">
    <inkscape:page
       x="0"
       y="0"
       inkscape:label="1"
       id="page1"
       width="466.66666"
       height="466.66666"
       margin="0"
       bleed="0" />
  </sodipodi:namedview>
  <g
     id="g1"
     inkscape:groupmode="layer"
     inkscape:label="1"
transform="matrix(-1, 0, 0, 1, 466.66666, 0)">
    <path
       id="path1"
       d="m 1552.77,275.352 0.46,0.664 0.45,0.672 c 79.78,121.183 87.46,251.625 94.25,366.73 6.63,112.59 12.35,209.824 78.58,283.867 l 0.93,1.035 0.85,1.094 c 37.55,47.371 91.09,67.899 153.07,91.676 50.32,19.32 107.37,41.2 160.39,80.93 99.1,75.37 159.14,187.41 169.31,315.67 10.74,135.42 -33.76,282.15 -124.33,418.94 l 954.15,989.11 2.17,2.24 c 0.02,0.02 0.04,0.04 0.05,0.06 0.01,0.02 0.03,0.02 0.04,0.03 l 0.16,0.17 0.02,-0.02 c 11.71,11.5 30.52,11.45 42.15,-0.18 0.98,-0.98 1.76,-2.08 2.57,-3.15 l 43.74,33 17.4,13.11 1.5,1.14 c 13.35,-14.44 29.2,-37.78 43.61,-65.56 7.06,-13.61 13.01,-26.85 17.78,-39.12 l 45.64,30.99 -76.44,96.76 58.87,44.41 15.84,11.94 1.64,1.24 c 14.87,-12.94 33.57,-35.8 51.11,-63.75 8.89,-14.17 16.44,-28.01 22.42,-40.73 l 51.73,35.11 -92.84,93.82 57.86,43.65 7.33,5.52 8.81,6.66 c 16.28,-11.19 38.13,-33.48 59.11,-61.56 10.91,-14.59 20.24,-28.95 27.57,-42.02 l 49.28,33.46 -109.06,90.4 72.3,54.53 c -15.73,18.89 -32.06,37.77 -48.7,56.64 2.4,1.85 4.72,3.83 6.84,6.08 26.96,28.8 19.31,81.05 -16.71,117.07 l -116.97,116.98 c -36.04,36.03 -88.29,43.68 -117.07,16.71 -2.27,-2.11 -4.24,-4.43 -6.1,-6.83 -18.87,16.63 -37.75,32.96 -56.64,48.69 l -54.52,-72.29 -90.41,109.06 -33.46,-49.29 c 13.08,-7.32 27.44,-16.66 42.03,-27.56 28.08,-20.99 50.36,-42.83 61.56,-59.11 l -6.66,-8.83 -5.52,-7.31 -43.65,-57.87 -93.82,92.85 -35.12,-51.73 c 12.73,-6 26.58,-13.55 40.74,-22.44 27.94,-17.52 50.8,-36.23 63.75,-51.1 l -1.24,-1.64 -11.94,-15.83 -44.42,-58.89 -96.75,76.46 -31,-45.64 c 12.27,-4.77 25.51,-10.72 39.12,-17.78 27.8,-14.42 51.13,-30.26 65.56,-43.63 l -1.12,-1.49 -13.12,-17.4 -33,-43.74 c 1.08,-0.81 2.17,-1.59 3.15,-2.57 11.63,-11.63 11.67,-30.44 0.17,-42.14 l 0.02,-0.02 -0.1,-0.11 c -0.04,-0.03 -0.07,-0.06 -0.09,-0.1 -0.04,-0.04 -0.1,-0.07 -0.14,-0.12 l -2.17,-2.09 -989.11,-954.16 c -136.79,90.58 -283.53,135.09 -418.94,124.34 -128.26,-10.17 -240.29,-70.2 -315.47,-169.04 -39.93,-53.29 -61.81,-110.33 -81.11,-160.65 -23.782,-61.98 -44.325,-115.51 -91.692,-153.07 l -1.094,-0.86 -1.035,-0.92 c -74.012,-66.23 -171.258,-71.96 -283.855,-78.6 -115.106,-6.78 -245.547,-14.47 -366.731,-94.25 l -0.672,-0.44 -0.664,-0.48 C 177.922,1483.61 108.383,1403.29 62.793,1307.21 21.0586,1219.26 0.519531,1119.96 0,1003.63 v -0.56 -0.54 C 3.44531,825.066 58.0313,563.035 298.551,322.52 c 3.984,-3.985 7.988,-7.942 12.062,-11.907 3.961,-4.07 7.957,-8.125 11.953,-12.105 C 563.035,58.0352 825.051,3.45703 1002.52,0.0117188 L 1003.06,0 h 0.56 c 116.33,0.507813 215.64,21.0547 303.6,62.7813 96.08,45.5977 176.4,115.1287 245.55,212.5707 z M 865.258,59.9414 c -13.465,2.3555 -27.02,5.0391 -40.629,8.0664 -13.606,3.0274 -27.266,6.3867 -40.977,10.1172 C 639.734,117.258 491.133,195.84 355.52,331.453 v 0 c -3.993,3.996 -7.985,8.039 -11.946,12.121 -4.078,3.965 -8.09,7.91 -12.07,11.895 C 157.145,529.836 77.0039,725.715 53.8398,905.461 c -1.7148,13.316 -3.1171,26.543 -4.2265,39.656 -1.1016,13.125 -1.9141,26.153 -2.4414,39.055 -0.2617,6.441 -0.4531,12.871 -0.5703,19.258 0.9257,207.34 69.2934,379.03 255.7344,511.33 224.527,147.82 486.066,24.96 656.027,177.03 100.927,80.02 97.927,211.21 180.957,322.02 140.58,184.84 407.89,205.21 663.16,39.97 l -34.7,-33.47 c -114.08,71.55 -233.5,106.51 -342.72,97.84 -102.93,-8.15 -188.91,-53.99 -248.65,-132.55 -31.75,-42.38 -50.32,-90.79 -68.3,-137.62 -26.13,-68.12 -53.14,-138.55 -119.704,-191.84 C 890.348,1569.11 767.617,1561.89 648.91,1554.88 540.684,1548.51 428.785,1541.93 328.629,1476.26 169.094,1362.79 94.2578,1212.63 93.2031,1003.76 96.4063,843.445 146.137,606.738 364.453,388.418 c 3.824,-3.809 7.656,-7.598 11.567,-11.398 l 0.523,-0.489 0.477,-0.508 c 3.8,-3.914 7.628,-7.793 11.441,-11.621 C 606.734,146.145 843.434,96.4258 1003.77,93.2148 c 208.84,1.0313 359.01,75.8482 472.52,235.4062 65.62,100.156 72.22,212.055 78.59,320.274 7,118.683 14.21,241.418 101.25,339.496 53.28,66.569 123.71,93.589 191.84,119.719 46.83,17.98 95.26,36.54 137.89,68.49 78.29,59.55 124.12,145.54 132.28,248.45 8.68,109.22 -26.28,228.64 -97.83,342.72 l 33.47,34.7 c 165.24,-255.25 144.87,-522.57 -39.97,-663.15 -110.8,-83.04 -242.03,-80.01 -322.03,-180.968 -152.07,-170 -29.19,-431.497 -177.02,-656.028 C 1382.46,115.891 1210.79,47.5117 1003.42,46.6094 958.691,47.4727 912.426,51.7109 865.258,59.9414 Z M 2043.13,1858.55 l -16.38,-16.98 -32.99,-34.19 -13.15,-13.63 -22.42,-23.24 -18,18.01 25.33,26.12 13.11,13.5 32.89,33.93 16.21,16.72 16.38,16.88 49.33,50.85 17.58,-17.58 -51.44,-53.33 z m -401.26,-858.14 c -91.01,-102.832 -98.43,-228.699 -105.6,-350.422 -6.5,-110.535 -12.66,-214.949 -75.39,-310.847 -111.13,-156.094 -252.13,-226.211 -456.97,-227.286 -156.906,3.184 -388.484,51.961 -602.265,265.743 -3.75,3.75 -7.508,7.547 -11.247,11.406 l -0.675,0.703 -0.723,0.691 c -3.84,3.723 -7.617,7.454 -11.367,11.204 -213.828,213.836 -262.606,445.429 -265.797,602.318 1.098,204.84 71.234,345.85 227.297,456.94 95.906,62.75 200.34,68.91 310.883,75.41 121.73,7.19 247.601,14.6 350.414,105.62 70.23,56.4 98.11,129.09 125.1,199.42 18.28,47.66 35.56,92.68 65.86,133.2 56.45,74.09 137.75,117.34 235.13,125.06 104.05,8.26 218.03,-24.71 327.52,-92.53 l -367.21,-354.23 c -102.42,18.17 -211.81,-12.15 -290.77,-91.1 -97.509,-97.51 -120.872,-241.44 -70.26,-361.29 l -204.081,-197.96 -51.563,51.56 -65.898,-65.895 283.867,-283.879 65.895,65.91 -51.57,51.574 197.94,204.08 c 119.85,-50.642 263.81,-27.287 361.32,70.24 78.96,78.96 109.27,188.36 91.1,290.77 l 354.23,367.21 c 67.82,-109.47 100.78,-223.46 92.52,-327.5 -7.72,-97.49 -51.04,-178.84 -124.88,-235.01 -40.55,-30.39 -85.64,-47.69 -133.38,-66 -70.33,-26.98 -143.04,-54.88 -199.43,-125.11 z m 191.36,950.7 13.51,13.09 33.73,32.73 16.83,16.33 16.79,16.29 48.9,47.42 27.01,-27.01 -46.08,-45.64 -16.58,-16.39 -16.64,-16.48 -33.2,-32.87 -13.3,-13.15 -30.61,-30.31 -28.6,28.59 z m 287.67,345.1 17.06,-17.07 -158,-153.25 -17.48,17.49 z m 191.96,185.18 16.55,-16.55 -157.99,-153.25 -16.99,16.97 z m 191.98,185.19 16.04,-16.03 -158,-153.25 -16.45,16.45 z m 191.98,185.19 15.52,-15.52 -158.02,-153.26 -15.94,15.95 z m 192.84,124.01 17.72,-17.73 -126.11,-124.84 -19,19 z M 3198,3333.16 c 8.67,8.65 22.7,8.65 31.36,0.02 8.66,-8.68 8.66,-22.72 0.02,-31.39 l -283.15,-283.14 -31.39,31.39 262.39,262.35 z m 103.79,-103.79 c 8.68,8.64 22.7,8.64 31.37,0 8.66,-8.68 8.64,-22.7 0,-31.37 l -283.14,-283.14 -31.39,31.38 262.05,262.01 z m -449.57,-467.11 -19.01,19.01 124.85,126.11 17.71,-17.72 z m -708.84,-799.78 -17.49,17.5 153.24,158 17.08,-17.08 z m -113.84,-48.38 -16.28,-16.8 -16.33,-16.84 -32.72,-33.72 -13.1,-13.51 -27.39,-28.23 -28.6,28.59 30.31,30.61 13.16,13.29 32.86,33.21 16.48,16.64 16.41,16.57 45.62,46.09 27,-27.01 z M 985.977,838.191 947.703,876.477 1133.32,1063.99 c 14.3,-10.57 29.27,-19.81 44.74,-27.77 z m -21.743,-22.429 c 4.496,-0.188 8.93,-1.934 12.368,-5.371 2.832,-2.832 4.515,-6.348 5.144,-10.02 0.984,-5.762 -0.711,-11.894 -5.144,-16.348 -7.289,-7.253 -19.067,-7.253 -26.36,0.008 -7.269,7.309 -7.258,19.067 -0.015,26.36 3.871,3.847 8.972,5.593 14.007,5.371 z M 810.406,950.234 c -7.308,-7.238 -19.066,-7.254 -26.367,0.02 -7.266,7.297 -7.266,19.07 -0.012,26.355 4.45,4.446 10.586,6.133 16.34,5.149 3.664,-0.637 7.184,-2.332 10.008,-5.164 3.441,-3.442 5.191,-7.871 5.391,-12.364 0.218,-5.031 -1.536,-10.136 -5.36,-13.996 z m 27.785,35.743 198.029,192.093 c 7.96,-15.49 17.2,-30.46 27.78,-44.76 L 876.484,947.695 Z m 978.739,859.883 28.92,-28.93 -154.82,-156.4 -30.51,30.49 z m 64.62,63.98 13.26,13.12 33.19,32.84 16.53,16.37 16.58,16.4 45.37,44.91 27,-27 -44.91,-45.37 -16.4,-16.57 -16.37,-16.54 -32.85,-33.18 -13.13,-13.25 -31.18,-31.51 -28.58,28.59 z m 272.89,352.83 25.1,-25.1 -156.43,-154.83 -26.67,26.67 z m 191.46,185.69 23.16,-23.17 -156.4,-154.84 -24.77,24.76 z m 191.46,185.71 21.25,-21.26 -156.41,-154.83 -22.84,22.84 z m 227.27,149.89 19.33,-19.33 -154.85,-156.43 -20.91,20.92 z m 159.23,157.62 17.71,-17.71 -124.84,-126.12 -18.98,18.98 z m -327.52,-366.49 -154.84,-156.42 -22.84,22.83 156.43,154.84 z m -115.52,-195.73 -22.85,22.84 154.84,156.42 21.25,-21.26 z m -185.71,-191.47 -24.76,24.76 154.83,156.42 23.18,-23.18 z m -185.7,-191.44 -26.68,26.67 154.85,156.42 25.09,-25.09 z m 86.6,224.66 25.08,-25.09 -154.83,-156.42 -26.67,26.67 z m 189.53,187.6 23.16,-23.16 -154.82,-156.42 -24.76,24.75 z m -727.3,-781.31 -81.3,-82.13 c -4.88,5.59 -9.9,11.1 -15.23,16.43 -5.33,5.33 -10.85,10.36 -16.44,15.24 l 82.12,81.3 z m -101.85,-201.12 c -6.2,14.51 -13.85,28.54 -22.97,41.9 l 25.15,25.41 c 9.25,-12.85 17.26,-26.32 24.09,-40.23 z m -344.21,-354.89 c -15.82,7.2 -31.09,15.91 -45.65,26.15 l 25.13,25.39 c 14.87,-9.93 30.58,-18.05 46.82,-24.41 z m 241.18,511.27 c 13.9,-6.83 27.37,-14.84 40.23,-24.09 l -25.4,-25.15 c -13.35,9.11 -27.39,16.77 -41.91,22.97 z m 65.88,-95.69 c -4.82,5.81 -9.92,11.48 -15.36,16.92 -5.44,5.43 -11.1,10.54 -16.9,15.35 l 25.07,24.82 c 5.71,-4.87 11.31,-9.92 16.72,-15.32 5.38,-5.38 10.43,-10.99 15.29,-16.69 z m -124.04,-367.2 c -9.87,-3.12 -19.91,-5.52 -30.06,-7.2 -26.3,-4.39 -53.23,-4 -79.4,1.22 l 38.49,39.69 32.45,33.45 185.89,191.66 c 2.57,-11.1 4.24,-22.38 5.06,-33.69 0.83,-11.21 0.79,-22.47 -0.11,-33.67 -1.12,-13.85 -3.54,-27.62 -7.27,-41.1 -9.76,-35.29 -28.44,-68.65 -56.15,-96.46 -25.81,-25.72 -56.4,-43.65 -88.9,-53.9 z m -275.44,275.41 c 10.24,32.49 28.17,63.11 53.9,88.93 27.82,27.73 61.19,46.39 96.5,56.16 13.47,3.72 27.24,6.15 41.08,7.25 11.21,0.9 22.47,0.94 33.69,0.12 11.3,-0.82 22.55,-2.5 33.63,-5.07 l -191.64,-185.89 -16.72,-16.21 -16.74,-16.22 -39.67,-38.5 c -5.23,26.18 -5.61,53.11 -1.23,79.39 1.68,10.14 4.08,20.18 7.2,30.04 z m 169.35,-140.68 -32.78,-33.12 -63.77,-64.43 c -6.52,5.18 -12.84,10.73 -18.88,16.74 -6.01,6.04 -11.57,12.36 -16.73,18.87 l 64.42,63.78 16.56,16.39 16.56,16.38 212.51,210.36 c 5.89,-4.76 11.61,-9.89 17.1,-15.36 5.47,-5.5 10.6,-11.2 15.36,-17.11 z m -51.08,51.07 -16.56,-16.38 -16.57,-16.39 -61.59,-60.98 c -9.62,15.25 -17.17,31.41 -22.69,48.1 l 49.32,47.85 33.46,32.44 200.8,194.76 c 15.13,-5.52 29.78,-12.72 43.66,-21.68 z m 102.18,-102.17 -16.22,-16.74 -16.22,-16.72 -47.85,-49.31 c -16.69,5.5 -32.83,13.06 -48.09,22.68 l 60.97,61.59 32.79,33.12 207.71,209.83 c 8.93,-13.87 16.16,-28.53 21.67,-43.66 z m -241.7,35.08 c 6.37,-16.25 14.49,-31.96 24.43,-46.83 l -25.39,-25.13 c -10.23,14.57 -18.97,29.84 -26.13,45.67 z m 38.38,-65.77 c 5.29,-6.48 10.96,-12.76 17,-18.8 6.05,-6.05 12.33,-11.72 18.82,-17.01 l -24.82,-25.08 c -6.47,5.41 -12.8,11.1 -18.87,17.18 -6.09,6.09 -11.79,12.42 -17.2,18.9 z m 293.38,420.02 -28.26,-27.42 c -10.23,3.16 -20.62,5.61 -31.09,7.4 -9.97,1.72 -20.02,2.88 -30.09,3.36 -11.44,0.55 -22.92,0.28 -34.33,-0.75 -55.68,-5.03 -109.98,-28.83 -152.61,-71.44 -65.23,-65.25 -86.36,-157.82 -63.52,-240.84 l -28.35,-27.5 c -34.63,99.23 -12.29,213.93 67,293.21 58.93,58.95 137.43,86.39 214.61,82.38 10.1,-0.52 20.18,-1.63 30.19,-3.24 9.25,-1.48 18.43,-3.43 27.52,-5.82 9.77,-2.59 19.43,-5.7 28.93,-9.34 z m -167.24,-502.36 c 83.02,-22.85 175.61,-1.72 240.85,63.52 42.62,42.63 66.41,96.93 71.45,152.59 1.04,11.43 1.3,22.91 0.76,34.36 -0.5,10.07 -1.66,20.11 -3.36,30.07 -1.81,10.5 -4.26,20.88 -7.41,31.12 l 27.4,28.26 c 3.65,-9.51 6.76,-19.18 9.35,-28.95 2.4,-9.09 4.35,-18.27 5.84,-27.51 1.6,-10.03 2.7,-20.1 3.23,-30.2 4,-77.18 -23.44,-155.68 -82.37,-214.63 -79.3,-79.29 -194,-101.62 -293.25,-66.99 z m 375.9,349.17 c -3.25,9.14 -6.9,18.19 -10.98,27.07 l 94.08,97 18.61,-18.62 z m -22.15,49.01 c -7.37,13.27 -15.71,26.16 -25.05,38.55 l 82.98,83.83 30.86,-30.86 z m -89.68,103.18 c -12.38,9.33 -25.27,17.67 -38.56,25.05 l 91.53,88.79 30.85,-30.86 z m -60.51,36.22 c -8.88,4.07 -17.89,7.73 -27.04,10.99 l 105.44,101.7 18.6,-18.6 z M 854.996,926.418 c 3.942,-0.5 7.762,-2.199 10.797,-5.227 3.227,-3.23 4.937,-7.363 5.301,-11.582 0.449,-5.285 -1.266,-10.714 -5.289,-14.773 -7.297,-7.246 -19.075,-7.246 -26.356,0.008 -7.269,7.297 -7.269,19.074 -0.019,26.367 4.261,4.227 10.039,5.93 15.566,5.207 z m 37.953,4.812 185.681,183.81 c 5.55,-6.48 11.3,-12.85 17.43,-18.99 6.13,-6.12 12.49,-11.87 18.98,-17.41 L 931.223,892.949 Z m 16.656,-60.125 c 4.211,-0.351 8.344,-2.062 11.594,-5.292 3.035,-3.071 4.715,-6.887 5.219,-10.833 0.699,-5.527 -0.992,-11.289 -5.219,-15.546 -7.308,-7.246 -19.066,-7.266 -26.363,0.007 -7.277,7.297 -7.258,19.067 -0.012,26.372 4.067,4.031 9.492,5.742 14.781,5.292 z m 863.405,707.445 -18.52,18.51 153.24,158 18.1,-18.11 z m -34.99,34.97 -30.52,30.52 154.82,156.42 28.94,-28.94 z m 590.54,540.92 -16.98,16.98 153.24,158.01 16.57,-16.57 z m 185.2,191.98 -16.47,16.47 153.25,158 16.04,-16.05 z m 185.18,191.96 -15.96,15.96 153.25,158.01 15.54,-15.54 z m -32.42,32.42 -20.93,20.93 154.84,156.42 19.34,-19.34 z m 81.62,229.63 -156.41,-154.84 -20.93,20.93 158.02,153.25 z m -947.68,-938.11 -156.41,-154.83 -30.51,30.53 157.98,153.24 z m -203.41,-107.82 -18.51,18.51 158.42,152.82 18.09,-18.09 z m 1271.62,991.3 123.58,127.39 15.09,-15.1 -123.21,-127.74 z m -10.58,261.55 15.09,-15.09 -127.4,-123.56 -15.43,15.42 z m -982.48,-947.77 53.34,51.44 17.55,-17.57 -50.85,-49.32 -16.88,-16.39 -16.71,-16.2 -33.93,-32.91 -13.5,-13.09 -26.12,-25.34 -17.99,17.99 23.22,22.42 13.64,13.15 34.19,32.98 16.98,16.39 17.06,16.45"
       style="fill:#100f0d;fill-opacity:1;fill-rule:nonzero;stroke:none"
       transform="matrix(0.13333333,0,0,-0.13333333,0,466.66667)" />
  </g>
</svg>
